<?xml version="1.0" encoding="utf-8"?>
<!-- Generator: Adobe Illustrator 23.0.3, SVG Export Plug-In . SVG Version: 6.00 Build 0)  -->
<svg version="1.1" id="Layer_1" xmlns="http://www.w3.org/2000/svg" xmlns:xlink="http://www.w3.org/1999/xlink" x="0px" y="0px"
	 viewBox="0 0 400 400" style="enable-background:new 0 0 400 400;" xml:space="preserve">
<style type="text/css">
	.st0{fill:#0089D6;}
	.st1{display:none;}
	.st2{display:inline;fill:#EA4335;}
	.st3{display:inline;fill:#4285F4;}
	.st4{display:inline;fill:#34A853;}
	.st5{display:inline;fill:#FBBC05;}
	.st6{display:inline;fill:#252F3E;}
	.st7{display:inline;}
	.st8{fill-rule:evenodd;clip-rule:evenodd;fill:#FF9900;}
</style>
<g>
	<path class="st0" d="M188.3,304.6c41.6-7.3,76-13.4,76.4-13.5l0.7-0.2l-39.3-46.7c-21.6-25.7-39.3-46.9-39.3-47
		c0-0.2,40.6-112,40.8-112.4c0.1-0.1,27.7,47.5,67,115.6c36.8,63.7,67,116.2,67.3,116.7l0.5,0.9l-124.9,0l-124.9,0
		C112.6,317.9,188.3,304.6,188.3,304.6z"/>
	<path class="st0" d="M38.4,290.3c0-0.1,18.5-32.2,41.1-71.4l41.1-71.3l48-40.2C195,85.2,216.7,67,216.8,67c0.1,0-0.3,0.8-0.8,1.9
		c-0.5,1.1-23.9,51.4-52.1,111.7l-51.2,109.7l-37.2,0C55.1,290.4,38.4,290.4,38.4,290.3z"/>
</g>
<g class="st1">
	<path class="st2" d="M242.7,143.6h9.5l27.5-26.6l0.9-11.4C230.3,61,153.5,65.7,108.8,116c-12.3,14.2-21.8,30.4-26.6,48.4
		c2.8-0.9,6.6-1.9,9.5-0.9l54.1-8.5c0,0,2.8-4.7,3.8-3.8C174.3,124.6,215.1,120.8,242.7,143.6L242.7,143.6z"/>
	<path class="st3" d="M317.6,164.4c-6.6-22.8-19-43.7-37-58.8l-38,38c16.1,13.3,25.6,33.2,24.7,53.1v6.6c19,0,34.2,15.2,34.2,34.2
		s-15.2,34.2-34.2,34.2H200l-6.6,6.6v40.8l6.6,6.6h67.4c48.4,0,88.3-38.9,88.3-87.3C356.5,208.1,341.4,180.6,317.6,164.4z"/>
	<path class="st4" d="M132.6,324.8H200v-54.1h-67.4c-4.7,0-9.5-0.9-14.2-2.8l-9.5,2.8l-27.5,26.6l-2.8,9.5
		C94.6,318.2,113.6,324.8,132.6,324.8z"/>
	<path class="st5" d="M132.6,149.3c-48.4,0-87.3,39.9-87.3,88.3c0,27.5,13.3,52.2,34.2,69.3l38.9-38.9
		c-17.1-7.6-24.7-27.5-17.1-44.6c7.6-17.1,27.5-24.7,44.6-17.1c7.6,3.8,13.3,9.5,17.1,17.1l38.9-38.9
		C185.7,161.6,160.1,149.3,132.6,149.3z"/>
</g>
<g class="st1">
	<path class="st6" d="M124,172c0,4.3,0.4,7.8,1.4,10.3c1.1,2.5,2.1,5.3,3.9,8.5c0.7,1.1,0.7,1.8,0.7,2.8s-0.7,2.5-2.1,3.5l-7.5,5
		c-1.1,0.7-2.1,1.1-3.2,1.1c-1.1,0-2.5-0.7-3.6-1.8c-1.8-1.8-3.2-3.6-4.3-5.3c-1.1-2.1-2.5-4.3-3.6-6.7c-9.2,10.7-20.6,16-34.4,16
		c-9.9,0-17.8-2.8-23.4-8.5s-8.5-13.1-8.5-22.4c0-9.9,3.6-18.1,10.7-24.1c7.1-6,16.7-9.2,28.8-9.2c3.9,0,8.2,0.4,12.4,1.1
		c4.3,0.7,8.9,1.4,13.5,2.5v-8.5c0-8.9-1.8-14.9-5.3-18.8c-3.9-3.6-9.9-5.3-19.2-5.3c-4.3,0-8.2,0.4-12.8,1.4
		c-4.6,1.1-8.5,2.5-12.8,3.9c-1.8,0.7-3.2,1.4-4.3,1.4c-1.1,0-1.4,0.4-1.8,0.4c-1.8,0-2.5-1.1-2.5-3.6v-5.7c0-1.8,0.4-3.2,0.7-4.3
		c0.7-0.7,1.8-1.8,3.2-2.5c4.3-2.1,8.9-3.9,14.6-5.3s11.7-2.1,18.1-2.1c13.8,0,24.1,3.2,30.5,9.6c6.4,6.4,9.6,16,9.6,28.8L124,172
		L124,172z M76.4,189.7c3.9,0,7.8-0.7,12.1-2.1c4.3-1.4,7.8-3.9,11-7.5c1.8-2.1,3.2-4.6,3.9-7.5c0.7-2.8,1.1-6,1.1-10.3v-5
		c-3.6-0.7-7.1-1.4-10.7-2.1c-3.9-0.4-7.5-0.7-11-0.7c-7.8,0-13.5,1.4-17.4,4.6c-3.9,3.2-5.7,7.5-5.7,13.5c0,5.3,1.4,9.6,4.3,12.4
		C67.2,188.3,71.1,189.7,76.4,189.7z M170.5,202.5c-2.1,0-3.6-0.4-4.6-1.1c-1.1-0.7-1.8-2.5-2.5-4.6l-27.3-90.2
		c-0.7-2.5-1.1-3.9-1.1-4.6c0-1.8,1.1-2.8,2.8-2.8h11.4c2.1,0,3.9,0.4,4.6,1.1c1.1,0.7,1.8,2.5,2.5,4.6l19.5,77.4l18.1-77.4
		c0.7-2.5,1.4-3.9,2.1-4.6c1.1-0.7,2.5-1.1,4.6-1.1h9.2c2.1,0,3.9,0.4,4.6,1.1c1.1,0.7,1.8,2.5,2.1,4.6l18.5,78.5l20.2-78.5
		c0.7-2.5,1.4-3.9,2.5-4.6c1.1-0.7,2.5-1.1,4.6-1.1h11c1.8,0,2.8,1.1,2.8,2.8c0,0.7,0,1.1-0.4,1.8c-0.4,0.7-0.4,1.8-0.7,2.8
		l-28,90.2c-0.7,2.5-1.4,3.9-2.5,4.6c-1.1,0.7-2.5,1.1-4.6,1.1h-9.9c-2.1,0-3.9-0.4-4.6-1.1c-1.1-0.7-1.8-2.5-2.1-4.6l-18.1-75.3
		l-18.1,75.3c-0.7,2.5-1.4,3.9-2.1,4.6c-1.1,0.7-2.5,1.1-4.6,1.1H170.5z M320.7,205.4c-6,0-12.1-0.7-18.1-2.1
		c-5.7-1.4-10.3-2.8-13.5-4.6c-1.8-1.1-3.2-2.1-3.5-3.2c-0.4-1.1-0.7-2.1-0.7-3.2v-6c0-2.5,1.1-3.6,2.8-3.6c0.7,0,1.4,0,2.1,0.4
		s1.8,0.7,2.8,1.1c3.9,1.8,8.2,3.2,12.8,4.3c4.6,1.1,9.2,1.4,13.8,1.4c7.5,0,13.1-1.4,17-3.9c3.9-2.5,6-6.4,6-11
		c0-3.2-1.1-6-3.2-8.2c-2.1-2.1-6-4.3-11.7-6l-17-5.3c-8.5-2.8-14.9-6.7-18.8-12.1c-3.9-5-5.7-11-5.7-17c0-5,1.1-9.2,3.2-13.1
		c2.1-3.9,5-7.1,8.5-9.6c3.6-2.8,7.5-4.6,12.1-6c4.6-1.4,9.6-2.1,14.6-2.1c2.5,0,5.3,0,7.8,0.4c2.8,0.4,5,0.7,7.5,1.4
		c2.5,0.7,4.6,1.1,6.7,1.8c2.1,0.7,3.9,1.4,5,2.1c1.8,1.1,2.8,1.8,3.6,2.8c0.7,1.1,1.1,2.1,1.1,3.9v6c0,2.5-1.1,3.9-2.8,3.9
		c-1.1,0-2.5-0.4-4.6-1.4c-6.7-3.2-14.2-4.6-22.4-4.6c-6.7,0-12.1,1.1-15.6,3.2c-3.5,2.1-5.3,5.7-5.3,10.3c0,3.2,1.1,6,3.6,8.2
		c2.5,2.1,6.7,4.6,12.8,6.4l16.7,5.3c8.5,2.8,14.6,6.4,18.1,11.4c3.6,5,5.3,10.3,5.3,16.3c0,5-1.1,9.6-3.2,13.5
		c-2.1,3.9-5,7.5-8.5,10.3c-3.5,2.8-7.8,5-13.1,6.4C332,204.7,326.7,205.4,320.7,205.4z"/>
	<g class="st7">
		<path class="st8" d="M342.7,262.2c-38.3,28.4-94.4,43.3-142.4,43.3c-67.5,0-127.8-24.9-174-66.4c-3.6-3.2-0.4-7.8,3.9-5
			c49.7,28.8,110.8,46.2,174,46.2c42.6,0,89.5-8.9,132.8-27C343.4,250.5,349.1,257.6,342.7,262.2z"/>
		<path class="st8" d="M358.7,244.1c-5-6.4-32.7-3.2-45.1-1.4c-3.9,0.4-4.3-2.8-1.1-5.3c22-15.3,58.2-11,62.1-5.7
			c4.3,5.3-1.1,41.5-21.7,58.6c-3.2,2.8-6,1.4-4.6-2.1C353.3,276.4,363.6,250.5,358.7,244.1z"/>
	</g>
</g>
</svg>
