<?xml version="1.0" encoding="utf-8"?>
<!-- Generator: Adobe Illustrator 23.0.3, SVG Export Plug-In . SVG Version: 6.00 Build 0)  -->
<svg version="1.1"
	 id="svg8" inkscape:version="0.92.1 r15371" sodipodi:docname="Azurey.svg" xmlns:cc="http://creativecommons.org/ns#" xmlns:dc="http://purl.org/dc/elements/1.1/" xmlns:inkscape="http://www.inkscape.org/namespaces/inkscape" xmlns:rdf="http://www.w3.org/1999/02/22-rdf-syntax-ns#" xmlns:sodipodi="http://sodipodi.sourceforge.net/DTD/sodipodi-0.dtd" xmlns:svg="http://www.w3.org/2000/svg"
	 xmlns="http://www.w3.org/2000/svg" xmlns:xlink="http://www.w3.org/1999/xlink" x="0px" y="0px" viewBox="0 0 187 127"
	 style="enable-background:new 0 0 187 127;" xml:space="preserve">
<style type="text/css">
	.st0{fill:#252F3E;}
	.st1{fill-rule:evenodd;clip-rule:evenodd;fill:#FF9900;}
</style>
<sodipodi:namedview  bordercolor="#666666" borderopacity="1.0" fit-margin-bottom="0" fit-margin-left="0" fit-margin-right="0" fit-margin-top="0" id="base" inkscape:current-layer="layer1" inkscape:cx="67.4659" inkscape:cy="38.024323" inkscape:document-units="mm" inkscape:pagecheckerboard="true" inkscape:pageopacity="0.0" inkscape:pageshadow="2" inkscape:window-height="781" inkscape:window-maximized="0" inkscape:window-width="930" inkscape:window-x="667" inkscape:window-y="117" inkscape:zoom="6.5246067" pagecolor="#ffffff" showgrid="false">
	</sodipodi:namedview>
<g>
	<path class="st0" d="M71.9,57.4c0,1.2,0.1,2.2,0.4,2.9c0.3,0.7,0.6,1.5,1.1,2.4c0.2,0.3,0.2,0.5,0.2,0.8c0,0.3-0.2,0.7-0.6,1
		l-2.1,1.4c-0.3,0.2-0.6,0.3-0.9,0.3c-0.3,0-0.7-0.2-1-0.5c-0.5-0.5-0.9-1-1.2-1.5c-0.3-0.6-0.7-1.2-1-1.9c-2.6,3-5.8,4.5-9.7,4.5
		c-2.8,0-5-0.8-6.6-2.4c-1.6-1.6-2.4-3.7-2.4-6.3c0-2.8,1-5.1,3-6.8c2-1.7,4.7-2.6,8.1-2.6c1.1,0,2.3,0.1,3.5,0.3s2.5,0.4,3.8,0.7
		v-2.4c0-2.5-0.5-4.2-1.5-5.3c-1.1-1-2.8-1.5-5.4-1.5c-1.2,0-2.3,0.1-3.6,0.4s-2.4,0.7-3.6,1.1c-0.5,0.2-0.9,0.4-1.2,0.4
		s-0.4,0.1-0.5,0.1c-0.5,0-0.7-0.3-0.7-1v-1.6c0-0.5,0.1-0.9,0.2-1.2c0.2-0.2,0.5-0.5,0.9-0.7c1.2-0.6,2.5-1.1,4.1-1.5
		c1.6-0.4,3.3-0.6,5.1-0.6c3.9,0,6.8,0.9,8.6,2.7c1.8,1.8,2.7,4.5,2.7,8.1L71.9,57.4L71.9,57.4z M58.5,62.4c1.1,0,2.2-0.2,3.4-0.6
		c1.2-0.4,2.2-1.1,3.1-2.1c0.5-0.6,0.9-1.3,1.1-2.1c0.2-0.8,0.3-1.7,0.3-2.9v-1.4c-1-0.2-2-0.4-3-0.6c-1.1-0.1-2.1-0.2-3.1-0.2
		c-2.2,0-3.8,0.4-4.9,1.3c-1.1,0.9-1.6,2.1-1.6,3.8c0,1.5,0.4,2.7,1.2,3.5C55.9,62,57,62.4,58.5,62.4z M85,66c-0.6,0-1-0.1-1.3-0.3
		c-0.3-0.2-0.5-0.7-0.7-1.3l-7.7-25.4c-0.2-0.7-0.3-1.1-0.3-1.3c0-0.5,0.3-0.8,0.8-0.8H79c0.6,0,1.1,0.1,1.3,0.3
		c0.3,0.2,0.5,0.7,0.7,1.3l5.5,21.8l5.1-21.8c0.2-0.7,0.4-1.1,0.6-1.3c0.3-0.2,0.7-0.3,1.3-0.3h2.6c0.6,0,1.1,0.1,1.3,0.3
		c0.3,0.2,0.5,0.7,0.6,1.3l5.2,22.1l5.7-22.1c0.2-0.7,0.4-1.1,0.7-1.3c0.3-0.2,0.7-0.3,1.3-0.3h3.1c0.5,0,0.8,0.3,0.8,0.8
		c0,0.2,0,0.3-0.1,0.5s-0.1,0.5-0.2,0.8l-7.9,25.4c-0.2,0.7-0.4,1.1-0.7,1.3c-0.3,0.2-0.7,0.3-1.3,0.3h-2.8c-0.6,0-1.1-0.1-1.3-0.3
		c-0.3-0.2-0.5-0.7-0.6-1.3l-5.1-21.2l-5.1,21.2c-0.2,0.7-0.4,1.1-0.6,1.3c-0.3,0.2-0.7,0.3-1.3,0.3H85z M127.3,66.8
		c-1.7,0-3.4-0.2-5.1-0.6c-1.6-0.4-2.9-0.8-3.8-1.3c-0.5-0.3-0.9-0.6-1-0.9c-0.1-0.3-0.2-0.6-0.2-0.9v-1.7c0-0.7,0.3-1,0.8-1
		c0.2,0,0.4,0,0.6,0.1c0.2,0.1,0.5,0.2,0.8,0.3c1.1,0.5,2.3,0.9,3.6,1.2c1.3,0.3,2.6,0.4,3.9,0.4c2.1,0,3.7-0.4,4.8-1.1
		c1.1-0.7,1.7-1.8,1.7-3.1c0-0.9-0.3-1.7-0.9-2.3c-0.6-0.6-1.7-1.2-3.3-1.7l-4.8-1.5c-2.4-0.8-4.2-1.9-5.3-3.4
		c-1.1-1.4-1.6-3.1-1.6-4.8c0-1.4,0.3-2.6,0.9-3.7c0.6-1.1,1.4-2,2.4-2.7c1-0.8,2.1-1.3,3.4-1.7s2.7-0.6,4.1-0.6
		c0.7,0,1.5,0,2.2,0.1c0.8,0.1,1.4,0.2,2.1,0.4c0.7,0.2,1.3,0.3,1.9,0.5c0.6,0.2,1.1,0.4,1.4,0.6c0.5,0.3,0.8,0.5,1,0.8
		c0.2,0.3,0.3,0.6,0.3,1.1V41c0,0.7-0.3,1.1-0.8,1.1c-0.3,0-0.7-0.1-1.3-0.4c-1.9-0.9-4-1.3-6.3-1.3c-1.9,0-3.4,0.3-4.4,0.9
		c-1,0.6-1.5,1.6-1.5,2.9c0,0.9,0.3,1.7,1,2.3c0.7,0.6,1.9,1.3,3.6,1.8l4.7,1.5c2.4,0.8,4.1,1.8,5.1,3.2s1.5,2.9,1.5,4.6
		c0,1.4-0.3,2.7-0.9,3.8c-0.6,1.1-1.4,2.1-2.4,2.9c-1,0.8-2.2,1.4-3.7,1.8C130.5,66.6,129,66.8,127.3,66.8z"/>
	<g>
		<path class="st1" d="M133.5,82.8c-10.8,8-26.6,12.2-40.1,12.2c-19,0-36-7-49-18.7c-1-0.9-0.1-2.2,1.1-1.4c14,8.1,31.2,13,49,13
			c12,0,25.2-2.5,37.4-7.6C133.7,79.5,135.3,81.5,133.5,82.8z"/>
		<path class="st1" d="M138,77.7c-1.4-1.8-9.2-0.9-12.7-0.4c-1.1,0.1-1.2-0.8-0.3-1.5c6.2-4.3,16.4-3.1,17.5-1.6
			c1.2,1.5-0.3,11.7-6.1,16.5c-0.9,0.8-1.7,0.4-1.3-0.6C136.5,86.8,139.4,79.5,138,77.7z"/>
	</g>
</g>
</svg>
