<?xml version="1.0" encoding="utf-8"?>
<!-- Generator: Adobe Illustrator 23.0.3, SVG Export Plug-In . SVG Version: 6.00 Build 0)  -->
<svg version="1.1"
	 id="svg8" inkscape:version="0.92.1 r15371" sodipodi:docname="Azurey.svg" xmlns:cc="http://creativecommons.org/ns#" xmlns:dc="http://purl.org/dc/elements/1.1/" xmlns:inkscape="http://www.inkscape.org/namespaces/inkscape" xmlns:rdf="http://www.w3.org/1999/02/22-rdf-syntax-ns#" xmlns:sodipodi="http://sodipodi.sourceforge.net/DTD/sodipodi-0.dtd" xmlns:svg="http://www.w3.org/2000/svg"
	 xmlns="http://www.w3.org/2000/svg" xmlns:xlink="http://www.w3.org/1999/xlink" x="0px" y="0px" viewBox="0 0 187 127"
	 style="enable-background:new 0 0 187 127;" xml:space="preserve">
<style type="text/css">
	.st0{fill:#EA4335;}
	.st1{fill:#4285F4;}
	.st2{fill:#34A853;}
	.st3{fill:#FBBC05;}
	.st4{fill:#5F6368;}
</style>
<sodipodi:namedview  bordercolor="#666666" borderopacity="1.0" fit-margin-bottom="0" fit-margin-left="0" fit-margin-right="0" fit-margin-top="0" id="base" inkscape:current-layer="layer1" inkscape:cx="67.4659" inkscape:cy="38.024323" inkscape:document-units="mm" inkscape:pagecheckerboard="true" inkscape:pageopacity="0.0" inkscape:pageshadow="2" inkscape:window-height="781" inkscape:window-maximized="0" inkscape:window-width="930" inkscape:window-x="667" inkscape:window-y="117" inkscape:zoom="6.5246067" pagecolor="#ffffff" showgrid="false">
	</sodipodi:namedview>
<g>
	<path class="st0" d="M25.9,58.4h1l2.9-2.8l0.1-1.2c-5.3-4.7-13.4-4.2-18.1,1.1C10.5,57,9.5,58.7,9,60.6c0.3-0.1,0.7-0.2,1-0.1
		l5.7-0.9c0,0,0.3-0.5,0.4-0.4C18.7,56.4,23,56,25.9,58.4L25.9,58.4z"/>
	<path class="st1" d="M33.8,60.6c-0.7-2.4-2-4.6-3.9-6.2l-4,4c1.7,1.4,2.7,3.5,2.6,5.6v0.7c2,0,3.6,1.6,3.6,3.6c0,2-1.6,3.6-3.6,3.6
		h-7.1l-0.7,0.7v4.3l0.7,0.7h7.1c5.1,0,9.3-4.1,9.3-9.2C37.9,65.2,36.3,62.3,33.8,60.6z"/>
	<path class="st2" d="M14.3,77.5h7.1v-5.7h-7.1c-0.5,0-1-0.1-1.5-0.3l-1,0.3l-2.9,2.8l-0.3,1C10.3,76.8,12.3,77.5,14.3,77.5z"/>
	<path class="st3" d="M14.3,59c-5.1,0-9.2,4.2-9.2,9.3c0,2.9,1.4,5.5,3.6,7.3l4.1-4.1c-1.8-0.8-2.6-2.9-1.8-4.7
		c0.8-1.8,2.9-2.6,4.7-1.8c0.8,0.4,1.4,1,1.8,1.8l4.1-4.1C19.9,60.3,17.2,59,14.3,59z"/>
	<path class="st4" d="M56.8,73.5c-2.5,0-4.9-0.9-6.6-2.7c-1.8-1.7-2.8-4.1-2.8-6.5c0-2.5,1-4.8,2.8-6.5c1.7-1.8,4.1-2.8,6.6-2.8
		c2.4,0,4.6,0.9,6.3,2.5l-1.8,1.8c-1.2-1.2-2.9-1.8-4.5-1.8c-1.8,0-3.5,0.7-4.7,2c-1.3,1.3-2,3-1.9,4.8c0,1.8,0.7,3.5,1.9,4.7
		c2.6,2.6,6.7,2.6,9.4,0.1c0.8-0.9,1.3-2,1.4-3.1h-6v-2.6h8.5c0.1,0.5,0.1,1,0.1,1.6c0.1,2.2-0.7,4.3-2.2,5.9
		C61.6,72.6,59.2,73.6,56.8,73.5z M76.5,71.8c-2.4,2.3-6.1,2.3-8.5,0c-1.1-1.1-1.8-2.7-1.7-4.3c0-1.6,0.6-3.1,1.7-4.3
		c2.4-2.3,6.1-2.3,8.5,0c1.1,1.1,1.8,2.7,1.7,4.3C78.3,69.2,77.7,70.7,76.5,71.8L76.5,71.8z M69.9,70.1c1.2,1.3,3.3,1.4,4.6,0.2
		c0.1,0,0.1-0.1,0.2-0.2c0.7-0.7,1-1.6,1-2.6c0-1-0.3-1.9-1-2.6c-1.3-1.3-3.3-1.4-4.7-0.1c0,0-0.1,0.1-0.1,0.1c-0.7,0.7-1,1.6-1,2.6
		C68.9,68.5,69.3,69.5,69.9,70.1L69.9,70.1z M89.6,71.8c-2.4,2.3-6.1,2.3-8.5,0c-1.1-1.1-1.8-2.7-1.7-4.3c0-1.6,0.6-3.1,1.7-4.3
		c2.4-2.3,6.1-2.3,8.5,0c1.1,1.1,1.8,2.7,1.7,4.3C91.3,69.2,90.7,70.7,89.6,71.8z M83,70.1c1.2,1.3,3.3,1.4,4.6,0.2
		c0.1,0,0.1-0.1,0.2-0.2c0.7-0.7,1-1.6,1-2.6c0-1-0.3-1.9-1-2.6c-1.3-1.3-3.3-1.4-4.7-0.1c0,0-0.1,0.1-0.1,0.1c-0.7,0.7-1,1.6-1,2.6
		C81.9,68.5,82.3,69.5,83,70.1L83,70.1z M98.1,78.8c-1.2,0-2.4-0.3-3.3-1.1c-0.8-0.6-1.5-1.5-1.9-2.5l2.3-1c0.2,0.6,0.6,1.1,1.1,1.5
		c0.5,0.4,1.2,0.6,1.9,0.6c0.9,0.1,1.7-0.3,2.3-0.9c0.6-0.7,0.9-1.7,0.8-2.6v-0.9h-0.1c-0.8,0.9-1.9,1.4-3.1,1.3c-1.5,0-3-0.6-4-1.7
		c-1.1-1.1-1.7-2.6-1.7-4.2c0-1.6,0.6-3.1,1.7-4.2c1-1.1,2.5-1.8,4-1.8c0.6,0,1.3,0.1,1.8,0.4c0.5,0.2,0.9,0.5,1.3,1h0.1v-1h2.5
		v10.7c0.1,1.7-0.4,3.4-1.6,4.7C101.1,78.3,99.6,78.9,98.1,78.8z M98.3,71.2c0.9,0,1.7-0.3,2.3-1c0.6-0.7,0.9-1.6,0.9-2.6
		c0-1-0.3-1.9-0.9-2.6c-0.6-0.7-1.4-1-2.3-1c-0.9,0-1.7,0.3-2.3,1c-0.7,0.7-1,1.6-1,2.6c0,1,0.3,1.9,1,2.6
		C96.6,70.8,97.4,71.2,98.3,71.2z M108.2,55.7v17.5h-2.6V55.7H108.2z M115.4,73.5c-1.6,0-3.1-0.6-4.2-1.7c-1.1-1.1-1.7-2.7-1.7-4.2
		c-0.1-1.6,0.5-3.1,1.6-4.3c1-1.1,2.5-1.7,4-1.7c0.7,0,1.4,0.1,2,0.4c0.6,0.2,1.1,0.6,1.5,1c0.4,0.4,0.7,0.8,1,1.2
		c0.2,0.4,0.4,0.8,0.6,1.2l0.3,0.7l-8,3.3c0.5,1.1,1.6,1.9,2.9,1.8c1.2,0,2.3-0.6,2.9-1.6l2,1.3c-0.5,0.7-1.2,1.3-1.9,1.8
		C117.5,73.2,116.4,73.5,115.4,73.5z M112,67.4l5.3-2.2c-0.2-0.4-0.5-0.7-0.8-0.9c-0.4-0.2-0.9-0.4-1.4-0.4c-0.8,0-1.6,0.4-2.2,1
		C112.3,65.5,111.9,66.4,112,67.4z"/>
	<path class="st4" d="M134.1,73.5c-4.6,0.1-8.3-3.5-8.4-8.1c0-0.1,0-0.2,0-0.3c-0.1-4.5,3.5-8.3,8-8.4c0.1,0,0.2,0,0.3,0
		c2.3-0.1,4.5,0.9,5.9,2.6l-1.4,1.4c-1.1-1.4-2.7-2.1-4.5-2c-1.7,0-3.3,0.6-4.4,1.8c-1.2,1.2-1.9,2.9-1.8,4.7
		c-0.1,1.7,0.6,3.4,1.8,4.7c1.2,1.2,2.8,1.8,4.4,1.8c1.9,0,3.8-0.8,5-2.3l1.4,1.4c-0.8,0.9-1.7,1.6-2.8,2.1
		C136.7,73.3,135.4,73.5,134.1,73.5z"/>
	<path class="st4" d="M144.5,73.2h-2.1V57h2.1V73.2z"/>
	<path class="st4" d="M147.8,63.4c2.3-2.2,5.9-2.2,8.2,0c1.1,1.1,1.6,2.6,1.6,4.2c0,1.6-0.5,3.1-1.6,4.2c-2.3,2.2-5.9,2.2-8.2,0
		c-1.1-1.1-1.6-2.6-1.6-4.2C146.2,66.1,146.8,64.6,147.8,63.4z M149.4,70.5c1.3,1.4,3.5,1.5,4.9,0.1c0,0,0.1-0.1,0.1-0.1
		c0.7-0.8,1.1-1.8,1.1-2.9c0-1.1-0.3-2.1-1.1-2.9c-1.3-1.4-3.5-1.5-4.9-0.1c0,0-0.1,0.1-0.1,0.1c-0.7,0.8-1.1,1.8-1.1,2.9
		C148.3,68.7,148.7,69.7,149.4,70.5L149.4,70.5z"/>
	<path class="st4" d="M169.1,73.2h-2v-1.5H167c-0.4,0.6-0.9,1.1-1.5,1.4c-0.6,0.4-1.3,0.6-2.1,0.6c-1.2,0.1-2.3-0.4-3.1-1.3
		c-0.8-1-1.1-2.2-1.1-3.4v-6.8h2.1v6.4c0,2.1,0.9,3.1,2.7,3.1c0.8,0,1.6-0.3,2.1-1c0.5-0.7,0.8-1.5,0.8-2.4v-6.1h2.1V73.2z"/>
	<path class="st4" d="M176.1,73.5c-1.4,0-2.8-0.6-3.7-1.7c-1-1.1-1.6-2.6-1.6-4.2c0-1.5,0.5-3,1.6-4.2c0.9-1.1,2.3-1.7,3.7-1.7
		c0.8,0,1.6,0.2,2.3,0.5c0.6,0.3,1.1,0.8,1.5,1.4h0.1l-0.1-1.5V57h2.1v16.2h-2v-1.5h-0.1c-0.4,0.6-0.9,1-1.5,1.3
		C177.7,73.3,176.9,73.5,176.1,73.5z M176.4,71.6c0.9,0,1.9-0.4,2.5-1.1c0.7-0.8,1.1-1.8,1-2.9c0.1-1.1-0.3-2.1-1-2.9
		c-1.3-1.4-3.4-1.5-4.8-0.2c-0.1,0.1-0.2,0.1-0.2,0.2c-0.7,0.8-1.1,1.8-1,2.9c-0.1,1.1,0.3,2.1,1,2.9
		C174.6,71.2,175.5,71.6,176.4,71.6z"/>
</g>
</svg>
